<svg width="24" height="24" viewBox="0 0 24 24" fill="none" xmlns="http://www.w3.org/2000/svg">
  <path
    d="M13.94 2.5a1 1 0 0 0-1.88 0l-.54 1.6a7.29 7.29 0 0 0-1.62.94l-1.66-.7a1 1 0 0 0-1.18.36l-1.5 2.6a1 1 0 0 0 .18 1.2l1.32 1.13a7.2 7.2 0 0 0-.08 1.15c0 .38.03.76.08 1.14l-1.32 1.14a1 1 0 0 0-.18 1.2l1.5 2.6a1 1 0 0 0 1.18.36l1.66-.7c.5.38 1.05.7 1.62.94l.54 1.6a1 1 0 0 0 1.88 0l.53-1.6c.58-.24 1.12-.56 1.63-.94l1.65.7a1 1 0 0 0 1.18-.36l1.5-2.6a1 1 0 0 0-.19-1.2l-1.31-1.14c.05-.38.07-.76.07-1.14 0-.38-.02-.77-.07-1.15l1.31-1.13a1 1 0 0 0 .19-1.2l-1.5-2.6a1 1 0 0 0-1.18-.36l-1.65.7a7.35 7.35 0 0 0-1.63-.94l-.53-1.6ZM12 9.5a2.5 2.5 0 1 1 0 5 2.5 2.5 0 0 1 0-5Z"
    fill="#6d6599"
    fill-opacity="0.85"
  />
</svg>
